<?xml version="1.0" encoding="utf-8" ?>
<svg xmlns="http://www.w3.org/2000/svg" viewBox="228 160 568 568" width="568" height="568">
<path fill="#141A56" d="M349.045 573.72C349.057 525.593 347.256 477.32 347.531 429.158C347.776 386.405 340.013 351.018 372.513 316.505C387.688 300.292 408.731 290.84 430.93 290.264C442.879 289.926 455.739 291.71 466.492 296.556C526.99 323.932 539.716 398.189 492.481 445.114C464.733 472.679 434.064 468.782 398.546 469.188L398.483 421.978C406.126 421.93 415.166 421.882 422.729 422.071C438.464 422.464 449.725 421.853 461.928 410.41C470.307 402.533 475.195 391.636 475.506 380.14C475.98 357.617 457.573 337.703 434.823 337.251C423.569 336.989 412.681 341.263 404.61 349.111C388.371 365.126 392.029 383.263 391.944 404.07C391.851 426.976 393.131 450.145 393.025 473.028C393.073 474.712 393.118 479.961 393.325 481.373C393.311 512.072 393.569 542.771 394.099 573.465C395.93 573.88 396.152 573.876 397.901 574.714C400.409 577.537 400.422 584.858 398.575 587.65C395.579 589.586 353.338 587.983 346.972 588.41C343.598 588.636 344.002 577.733 344.921 575.362C346.222 574.06 347.221 574.078 349.045 573.72Z"/>
<defs><linearGradient id="gradient_0" gradientUnits="userSpaceOnUse" x1="506.88745" y1="548.27478" x2="605.37347" y2="371.69061"><stop offset="0" stop-color="#2C62AA"/><stop offset="1" stop-color="#3E78BC"/></linearGradient></defs>
<path fill="url(#gradient_0)" d="M422.854 478.746C443.658 482.542 464.108 490.785 485.15 483.459C492.82 480.744 499.689 476.155 505.135 470.11C523.035 450.4 539.823 402.127 548.401 376.502C550.889 369.07 554.63 354.514 558.068 348.473C558.675 347.405 559.419 346.662 560.706 346.51C561.736 346.388 563.253 347.013 563.912 347.808C565.358 349.551 571.821 372.037 573.082 375.955C581.83 403.131 604.646 465.377 626.715 482.169C630.38 484.958 633.932 486.137 638.516 485.485C654.023 483.281 667.066 467.308 675.794 455.567C676.221 464.168 657.896 489.29 651.838 496.366C618.169 535.689 587.507 488.437 564.999 466.169C564.62 466.26 563.964 466.385 563.635 466.53L562.426 464.616L561.786 463.082L561.192 463.34C559.537 476.87 555.964 490.327 552.212 503.194C544.159 530.811 531.929 558.595 508.593 576.586C482.857 596.428 462.629 584.774 445.411 562.006C427.238 537.976 425.374 511.577 404.61 489.636C401.075 486.007 398.957 483.045 394.473 480.044L393.668 480.031L393.325 481.373C393.118 479.961 393.073 474.712 393.025 473.028L393.691 475.183C401.188 476.389 415.296 476.014 422.854 478.746Z"/>
<path fill="#61B0F0" d="M422.854 478.746C425.407 482.086 439.577 494.064 443.813 498.187C455.757 509.286 465.354 526.765 480.063 534.389C517.684 553.89 541.031 509.338 553.452 481.16C556.07 475.222 558.204 468.728 561.192 463.34C559.537 476.87 555.964 490.327 552.212 503.194C544.159 530.811 531.929 558.595 508.593 576.586C482.857 596.428 462.629 584.774 445.411 562.006C427.238 537.976 425.374 511.577 404.61 489.636C401.075 486.007 398.957 483.045 394.473 480.044L393.668 480.031L393.325 481.373C393.118 479.961 393.073 474.712 393.025 473.028L393.691 475.183C401.188 476.389 415.296 476.014 422.854 478.746Z"/>
<path fill="#61B0F0" d="M685.665 438.304C686.356 435.651 687.524 433.308 688.576 430.798C703.649 394.827 726.583 362.017 766.473 352.067C761.705 356.44 754.595 362.697 750.828 367.833C732.028 393.462 723.581 427.007 719.143 458C716.296 477.878 713.592 498.245 705.999 516.825C704.62 520.197 700.989 529.704 699.411 532.43C693.972 543.6 688.999 551.823 680.921 561.315C660.227 585.634 631.904 594.431 605.951 571.386C598.796 564.957 592.663 557.474 587.765 549.196C575.873 528.962 563.9 488.032 562.426 464.616L563.635 466.53C563.964 466.385 564.62 466.26 564.999 466.169C587.507 488.437 618.169 535.689 651.838 496.366C657.896 489.29 676.221 464.168 675.794 455.567C680.006 449.565 682.473 444.796 685.665 438.304Z"/>
<path fill="#4FA0EA" d="M562.426 464.616L563.635 466.53C568.796 478.711 573.851 490.953 579.652 502.836C580.642 504.864 582.41 507.637 583.187 509.624C582.147 512.859 585.45 518.2 586.971 521.212C602.909 552.77 635.859 571.273 669.345 553.37C680.027 547.659 687.658 540.786 696.422 532.602C697.127 531.955 697.944 531.585 698.906 531.518L699.411 532.43C693.972 543.6 688.999 551.823 680.921 561.315C660.227 585.634 631.904 594.431 605.951 571.386C598.796 564.957 592.663 557.474 587.765 549.196C575.873 528.962 563.9 488.032 562.426 464.616Z"/>
<path fill="#2B5EA6" d="M685.665 438.304C685.871 442.867 682.985 452.55 681.635 457.157C675.08 479.538 667.439 504.818 651.121 522.187C624.396 550.634 600.51 539.308 583.187 509.624C582.41 507.637 580.642 504.864 579.652 502.836C573.851 490.953 568.796 478.711 563.635 466.53C563.964 466.385 564.62 466.26 564.999 466.169C587.507 488.437 618.169 535.689 651.838 496.366C657.896 489.29 676.221 464.168 675.794 455.567C680.006 449.565 682.473 444.796 685.665 438.304Z"/>
<path fill="#141A56" d="M301.512 392.296C305.231 392.462 305.769 393.081 308.327 395.857C312.531 396.009 314.418 397.035 317.19 393.452C324.009 391.048 327.812 395.716 337.007 395.335C338.852 393.782 340.274 392.432 342.612 391.985C345.815 393.252 346.176 406.855 340.849 406.738C338.984 405.784 338.915 405.526 337.586 403.781L337.219 403.29L328.177 403.389C327.381 413.403 332.268 412.331 336.831 417.316C337.348 417.881 336.834 423.278 337.952 425.075C339.347 425.184 340.514 425.099 341.637 425.864C342.728 430.579 342.558 439.116 342.614 444.173C342.724 452.305 342.782 460.438 342.787 468.571C330.526 465.837 316 464.414 303.383 462.868L295.351 462.048L295.406 476.445L265.363 476.336C265.219 467.188 265.433 452.811 270.114 445.061C278.71 430.831 293.381 430.383 307.452 426.513C307.664 416.965 304.98 419.73 312.545 413.845C313.361 410.307 312.89 410.508 316.143 409.76C316.749 408.021 316.498 405.365 316.479 403.381C314.312 403.115 310.741 402.774 308.567 403.061C307.521 403.199 307.064 404.657 306.311 405.934C304.692 406.869 304.708 406.776 302.923 406.808C298.345 404.515 299.711 396.081 301.512 392.296Z"/>
<path fill="#141A56" d="M296.143 477.739C298.211 477.748 298.76 477.791 300.093 478.855C300.952 481.461 301.109 485.707 299.146 487.804C295.342 488.413 289.403 488.208 285.395 488.216L263.047 488.269C260.94 488.292 260.262 488.08 258.899 486.822C258.183 484.489 258.407 481.525 259.274 479.251C261.403 477.096 290.827 477.925 296.143 477.739Z"/>
</svg>
